<svg viewBox="0 0 1080 1080" xmlns="http://www.w3.org/2000/svg" xml:space="preserve" style="fill-rule:evenodd;clip-rule:evenodd;stroke-linejoin:round;stroke-miterlimit:2">
  <path d="M79.515 481.361c-.002-.073-.008-.149-.012-.223l-.014-.224c-.003-.037-.004-.076-.008-.11l-.048-.408-.008-.067c-.004-.032-.013-.072-.015-.082l-.079-.403a8.572 8.572 0 0 0-.536-1.627c-.061-.128-.117-.258-.183-.382a120.96 120.96 0 0 0-.204-.367c-.07-.12-.145-.255-.218-.356l-.218-.32c-.021-.03-.038-.057-.061-.088l-.08-.1-.123-.147-.119-.142-.06-.07c-.019-.023-.051-.056-.076-.083l-.08-.086c-.026-.027-.056-.06-.076-.078l-.131-.13a73.044 73.044 0 0 1-.277-.272 47.185 47.185 0 0 0-.579-.489c-.201-.158-.388-.29-.575-.43-.395-.266-.778-.531-1.161-.751-.377-.235-.755-.43-1.113-.627-.363-.184-.713-.367-1.041-.52l-.94-.447c-.15-.069-.289-.139-.424-.207l-.392-.195-.688-.364-.299-.169c-.093-.054-.179-.097-.258-.148l-.421-.253a6.465 6.465 0 0 0-.285-.178c-.074-.043-.481-.326-.481-.326-.045-.04-.097-.099-.144-.15-.048-.052-.097-.103-.143-.155a4.419 4.419 0 0 1-.457-.603l-.09-.146c-.027-.049-.049-.098-.074-.146l-.043-.087-.04-.09-.059-.188-.055-.175c-.017-.057-.028-.115-.041-.169l-.037-.156-.025-.137-.006-.032-.003-.015-.005-.006a2.339 2.339 0 0 1-.034-.042c-.002-.001-.531.595-.64.707l-.57.583-.906.929-1.172 1.209-.049.051-.024.025c-.007.008-.02.015-.009.026l.062.111.103.185c.063.107.105.185.142.24l.092.139v-.001.001l.071.121c.051.081.118.215.24.384.12.17.262.399.489.651.11.127.225.271.373.412.147.147.292.3.479.467.179.156.372.322.593.5.219.175.461.345.717.536.127.096.268.181.408.277.142.093.287.193.439.29l.477.289.25.151.261.146 1.113.623c.196.107.39.227.593.344l.306.18.308.193c.208.13.422.261.632.41.21.146.433.29.643.45.214.157.418.329.618.512.096.095.191.189.285.29.023.025.317.562.329.585.012.02.11.249.123.281l.046.125c.018.046.025.086.04.132.105.354.213.893.088 1.568-.015.084-.041.167-.061.255-.021.087-.059.171-.087.261-.031.089-.079.177-.119.27-.046.09-.1.178-.151.271-.063.085-.118.179-.189.265a7.349 7.349 0 0 0-.108.129l-.034.04-.036.045-.01.01a.814.814 0 0 0-.04.043c-.007.01-.039.04-.063.064l-.075.074-.105.105-.029.024-.057.05-.086.072c-.052.044-.245.167-.296.2a6.035 6.035 0 0 1-.085.057l-.05.034-.033.019-.034.021-.02.013-.035.019-.15.082-.074.041c-.024.012-.041.018-.062.028-.03.016-.111.049-.177.078-.07.03-.143.065-.229.09-.077.025-.424.11-.549.137-.072.018-.097.016-.17.029a7.13 7.13 0 0 1-.407.03c-.081.002-.191.007-.299.005-.057-.001-.117.002-.183-.001a5.113 5.113 0 0 1-1.821-.411c-.098-.04-.194-.094-.292-.141-.097-.05-.198-.094-.295-.148l-.431-.257c-.138-.093-.272-.193-.408-.288-.069-.046-.133-.099-.198-.152l-.194-.156c-.132-.099-.251-.216-.374-.327a27.473 27.473 0 0 0-.183-.166l-.183-.177-.536-.562-.152-.16c-.013-.012-.025-.028-.038-.038l-.043-.014-.086-.029-.271-.048-.054.017-.159.05-.041.013-.021.007-.019.02-.078.08-.307.317-.152.157-.076.078a.26.26 0 0 0-.027.03l-.02.023-.155.185-.303.364-.574.697-.53.649-.311.375-.451.538c.037.077.085.144.142.223l.164.226.162.223c.028.037.052.074.082.11l.056.068.203.246.215.233.206.221c.069.073.145.14.216.209.145.136.287.275.428.39l.107.09.116.094.116.093c.038.03.075.055.112.082l.44.316.452.283.111.069.114.062.225.122.222.12c.074.039.15.071.224.106l.441.202.44.172c.073.027.144.058.216.082l.218.07.427.136.425.107c.277.078.563.118.836.171.133.037.269.056.406.08l.415.071c.138.02.271.036.412.053.145.012.296.03.441.035l.44.02.223.009.225-.006.456-.013c.153-.005.31-.023.466-.034a9.13 9.13 0 0 0 1.897-.41 8.633 8.633 0 0 0 1.851-.878 9.192 9.192 0 0 0 3-3.114 8.442 8.442 0 0 0 .862-2.137 9.044 9.044 0 0 0 .267-2.333l-.002-.211ZM76.435 467.793l.528-.585.252-.294a24.3 24.3 0 0 0 .88-1.105l.184-.249.308-.393.014-.017v-.048l.001-.063.002-.113c.001-.069.003-.124.002-.155a2.957 2.957 0 0 0-.108-.369 13.238 13.238 0 0 0-.445-.384 11.128 11.128 0 0 0-1.239-1.309 8.596 8.596 0 0 0-.386-.335c-.135-.113-.269-.209-.416-.317a7.63 7.63 0 0 0-.949-.596l-.266-.141c-.088-.047-.179-.082-.268-.123l-.441-.195-.244-.107-.12-.053-.03-.013c-.009-.002-.021-.016-.028-.002l-.046.048-.362.379-.175.185-.086.097a27.092 27.092 0 0 0-1.433 1.756c-.602.806-.927 1.348-.883 1.361l.007.017h.018c.405.006.421.003.421.003l.109.037c.072.022.177.057.309.106.067.022.139.052.218.084.079.03.163.069.253.11.09.038.184.092.284.142.099.053.207.098.312.165l.334.195.352.229.368.258.379.291a21.285 21.285 0 0 1 .999.846l.253.227c.274.242.546.487.858.735l.28-.305Z" style="fill-rule:nonzero" transform="translate(-1635.41 -14183.41) scale(30.9537)"/>
</svg>
