<?xml version="1.0" standalone="no"?>
<!DOCTYPE svg PUBLIC "-//W3C//DTD SVG 20010904//EN"
 "http://www.w3.org/TR/2001/REC-SVG-20010904/DTD/svg10.dtd">
<svg version="1.0" xmlns="http://www.w3.org/2000/svg"
 width="700.000000pt" height="700.000000pt" viewBox="0 0 700.000000 700.000000"
 preserveAspectRatio="xMidYMid meet">
<metadata>
Created by potrace 1.14, written by Peter Selinger 2001-2017
</metadata>
<g transform="translate(0.000000,700.000000) scale(0.100000,-0.100000)"
fill="#000000" stroke="none">
<path d="M4109 6402 c-128 -135 -342 -400 -450 -557 -34 -51 -82 -134 -77
-136 2 0 26 -2 53 -4 88 -6 287 -95 440 -195 129 -85 315 -236 499 -405 6 -6
32 -27 58 -48 l46 -38 24 24 c12 13 52 57 88 97 36 40 70 78 75 84 24 25 147
178 223 278 75 97 82 111 82 152 0 81 4 75 -266 352 -200 204 -347 304 -644
437 -25 11 -52 24 -61 28 -13 6 -34 -10 -90 -69z"/>
<path d="M2820 4983 c0 -11 -57 -71 -374 -396 -149 -153 -274 -284 -277 -290
-8 -14 78 -163 163 -284 61 -87 213 -247 313 -329 184 -152 418 -304 742 -480
272 -148 551 -337 673 -455 82 -79 158 -244 177 -379 5 -42 4 -143 -2 -185
-42 -264 -272 -495 -569 -570 -78 -20 -111 -23 -231 -20 -77 1 -155 6 -173 10
-81 16 -198 57 -274 95 -74 38 -235 138 -264 165 -6 5 -36 30 -65 54 -30 25
-104 95 -164 157 -83 84 -120 114 -148 122 -86 24 -117 -5 -502 -473 -61 -74
-157 -190 -176 -213 -10 -12 -19 -26 -19 -30 0 -11 113 -164 158 -216 227
-255 474 -426 827 -571 126 -52 360 -109 615 -150 152 -24 483 -24 615 1 328
60 559 161 810 353 59 44 226 206 275 266 171 207 286 433 349 683 19 77 23
94 42 227 11 77 14 347 4 410 -29 191 -64 327 -117 454 -135 324 -345 566
-698 800 -204 137 -298 190 -580 327 -611 298 -822 421 -920 534 -93 108 -142
199 -167 311 -11 48 -23 79 -30 79 -7 0 -13 -3 -13 -7z"/>
</g>
</svg>
