<svg fill="#71717a" viewBox="0 0 202 182"
  xmlns="http://www.w3.org/2000/svg" xml:space="preserve" style="fill-rule:evenodd;clip-rule:evenodd;stroke-linejoin:round;stroke-miterlimit:2">
  <path d="m51.682 2.61 23.681 42.723L53.615 84.48a12.564 12.564 0 0 0 0 12.227l21.748 39.244-23.681 42.723a25.133 25.133 0 0 1-10.633-10.004L3.352 103.183a25.23 25.23 0 0 1 0-25.131l37.697-65.486A25.126 25.126 0 0 1 51.682 2.61Z" style="fill:url(#a);fill-rule:nonzero"/>
  <path d="M53.615 84.528a12.565 12.565 0 0 0 0 12.179l21.748 39.244-23.681 42.723a25.133 25.133 0 0 1-10.633-10.004L3.352 103.183C.356 98.012 17.126 91.826 53.615 84.577v-.049Z" style="fill:url(#b);fill-rule:nonzero"/>
  <path d="m54.098 6.911 21.265 38.422-3.528 6.138-18.752-31.753c-5.413-8.844-13.677-4.253-24.02 13.629l1.547-2.658 10.439-18.123A25.128 25.128 0 0 1 51.585 2.61l2.465 4.301h.048Z" style="fill:url(#c);fill-rule:nonzero"/>
  <path d="m159.94 12.566 37.697 65.486c4.494 7.733 4.494 17.399 0 25.131L159.94 168.67a25.133 25.133 0 0 1-21.749 12.566h-37.697l46.88-84.529a12.565 12.565 0 0 0 0-12.179L100.494 0h37.697a25.133 25.133 0 0 1 21.749 12.566Z" style="fill:url(#d);fill-rule:nonzero"/>
  <path d="m136.258 180.946-37.214.338 45.044-84.963a13.055 13.055 0 0 0 0-12.276L99.044 0h8.506l47.267 83.658a13.05 13.05 0 0 1-.049 12.953 7549.076 7549.076 0 0 0-30.302 53.162c-9.183 16.142-5.22 26.533 11.792 31.173Z" style="fill:url(#e);fill-rule:nonzero"/>
  <path d="M62.797 181.236c-3.866 0-7.732-.919-11.115-2.562l46.493-83.852a8.677 8.677 0 0 0 0-8.409L51.682 2.61A25.14 25.14 0 0 1 62.797 0h37.697l46.88 84.528a12.565 12.565 0 0 1 0 12.179l-46.88 84.529H62.797Z" style="fill:url(#f);fill-rule:nonzero"/>
  <path d="M144.088 86.413 96.145 0h4.349l46.88 84.528a12.565 12.565 0 0 1 0 12.179l-46.88 84.529h-4.349l47.943-86.414a8.677 8.677 0 0 0 0-8.409Z" style="fill:url(#g);fill-rule:nonzero"/>
  <path d="M98.175 86.413 51.682 2.61c1.449-.773 3.189-1.353 4.833-1.837 10.245 18.414 25.373 46.348 45.429 83.755a12.565 12.565 0 0 1 0 12.179L55.79 180.269c-1.644-.483-2.514-.822-4.06-1.547l46.396-83.851a8.673 8.673 0 0 0 0-8.41l.049-.048Z" style="fill:url(#h);fill-rule:nonzero"/>
  <defs>
    <linearGradient id="a" x1="0" y1="0" x2="1" y2="0" gradientUnits="userSpaceOnUse" gradientTransform="rotate(-96.499 98.578 72.52) scale(161.7868)">
      <stop offset="0" style="stop-color:#959595;stop-opacity:1"/>
      <stop offset="1" style="stop-color:#c5c5c5;stop-opacity:1"/>
    </linearGradient>
    <linearGradient id="b" x1="0" y1="0" x2="1" y2="0" gradientUnits="userSpaceOnUse" gradientTransform="rotate(-119.867 78.084 63.83) scale(58.8421)">
      <stop offset="0" style="stop-color:#888;stop-opacity:.7"/>
      <stop offset="1" style="stop-color:#888;stop-opacity:0"/>
    </linearGradient>
    <linearGradient id="c" x1="0" y1="0" x2="1" y2="0" gradientUnits="userSpaceOnUse" gradientTransform="scale(39.855) rotate(60.796 .462 1.123)">
      <stop offset="0" style="stop-color:#959595;stop-opacity:.5"/>
      <stop offset="1" style="stop-color:#969696;stop-opacity:0"/>
    </linearGradient>
    <linearGradient id="d" x1="0" y1="0" x2="1" y2="0" gradientUnits="userSpaceOnUse" gradientTransform="scale(-167.261) rotate(81.603 .177 -1.064)">
      <stop offset="0" style="stop-color:#969696;stop-opacity:1"/>
      <stop offset="1" style="stop-color:#c5c5c5;stop-opacity:1"/>
    </linearGradient>
    <linearGradient id="e" x1="0" y1="0" x2="1" y2="0" gradientUnits="userSpaceOnUse" gradientTransform="scale(194.977) rotate(-68.399 .89 .163)">
      <stop offset="0" style="stop-color:#888;stop-opacity:.8"/>
      <stop offset=".5" style="stop-color:#888;stop-opacity:.2"/>
      <stop offset="1" style="stop-color:#888;stop-opacity:0"/>
    </linearGradient>
    <linearGradient id="f" x1="0" y1="0" x2="1" y2="0" gradientUnits="userSpaceOnUse" gradientTransform="scale(-167.1476) rotate(81.871 .325 -.888)">
      <stop offset="0" style="stop-color:#bebebe;stop-opacity:1"/>
      <stop offset="1" style="stop-color:#eee;stop-opacity:1"/>
    </linearGradient>
    <linearGradient id="g" x1="0" y1="0" x2="1" y2="0" gradientUnits="userSpaceOnUse" gradientTransform="rotate(61.633 48.54 85.171) scale(98.2464)">
      <stop offset="0" style="stop-color:#fff;stop-opacity:.3"/>
      <stop offset="1" style="stop-color:#fff;stop-opacity:.06"/>
    </linearGradient>
    <linearGradient id="h" x1="0" y1="0" x2="1" y2="0" gradientUnits="userSpaceOnUse" gradientTransform="rotate(-60.485 183.36 55.671) scale(119.6337)">
      <stop offset="0" style="stop-color:#fff;stop-opacity:.3"/>
      <stop offset="1" style="stop-color:#fff;stop-opacity:.06"/>
    </linearGradient>
  </defs>
</svg>